<?xml version="1.0" encoding="iso-8859-1"?>
<!-- Generator: Adobe Illustrator 19.0.0, SVG Export Plug-In . SVG Version: 6.00 Build 0)  -->
<svg version="1.1" id="Layer_1" xmlns="http://www.w3.org/2000/svg" xmlns:xlink="http://www.w3.org/1999/xlink" x="0px" y="0px"
	 viewBox="0 0 512 512" style="enable-background:new 0 0 512 512;" xml:space="preserve">
<g>
	<g>
		<path d="M392.439,182.466c-13.723-30.832-26.685-59.954-33.68-83.737c-8.293-28.206-19.716-50.719-33.95-66.917
			C306.261,10.702,283.109,0,256,0s-50.261,10.702-68.809,31.811c-14.234,16.198-25.657,38.712-33.95,66.916
			c-6.994,23.784-19.957,52.905-33.68,83.738c-23.213,52.156-47.218,106.089-47.218,145.879C72.343,429.611,154.732,512,256,512
			s183.657-82.389,183.657-183.657C439.657,288.554,415.653,234.622,392.439,182.466z M256,478.609
			c-82.856,0-150.265-67.409-150.265-150.265c0-32.695,23.552-85.612,44.333-132.3c14.187-31.875,27.587-61.983,35.208-87.896
			c6.913-23.508,15.997-41.775,26.999-54.295C224.373,40.084,238.675,33.391,256,33.391s31.627,6.693,43.726,20.461
			c11.003,12.521,20.086,30.788,26.999,54.296c7.621,25.912,21.021,56.019,35.208,87.895c20.781,46.688,44.332,99.605,44.332,132.3
			C406.265,411.201,338.856,478.609,256,478.609z"/>
	</g>
</g>
<g>
	<g>
		<path d="M322.025,239.858c-17.727-28.735-41.176-44.562-66.025-44.562s-48.297,15.826-66.025,44.562
			c-14.996,24.309-23.949,55.54-23.949,83.545c0,28.629,9.219,52.514,26.663,69.075c16.13,15.314,38.024,23.408,63.311,23.408
			s47.181-8.094,63.311-23.408c17.444-16.561,26.663-40.447,26.663-69.075C345.974,295.398,337.021,264.166,322.025,239.858z
			 M296.321,368.26c-9.809,9.312-23.751,14.234-40.321,14.234c-16.57,0-30.512-4.922-40.321-14.234
			c-10.79-10.244-16.262-25.337-16.262-44.859c0-22.074,7.093-46.751,18.976-66.012c11.253-18.242,24.961-28.703,37.606-28.703
			c12.645,0,26.354,10.461,37.606,28.703c11.883,19.261,18.976,43.938,18.976,66.012
			C312.583,342.924,307.111,358.016,296.321,368.26z"/>
	</g>
</g>
<g>
</g>
<g>
</g>
<g>
</g>
<g>
</g>
<g>
</g>
<g>
</g>
<g>
</g>
<g>
</g>
<g>
</g>
<g>
</g>
<g>
</g>
<g>
</g>
<g>
</g>
<g>
</g>
<g>
</g>
</svg>
