<svg xmlns="http://www.w3.org/2000/svg" xmlns:xlink="http://www.w3.org/1999/xlink" width="104.611" height="134" viewBox="0 0 104.611 134"><defs><filter id="a" x="0" y="0" width="104.611" height="134" filterUnits="userSpaceOnUse"><feOffset dy="10" input="SourceAlpha"/><feGaussianBlur stdDeviation="5" result="b"/><feFlood flood-color="#a65221" flood-opacity="0.502"/><feComposite operator="in" in2="b"/><feComposite in="SourceGraphic"/></filter></defs><g transform="matrix(1, 0, 0, 1, 0, 0)" filter="url(#a)"><path d="M65.019,37.063C62.232,30.8,59.6,24.885,58.178,20.054c-1.685-5.729-4-10.3-6.9-13.593a18.347,18.347,0,0,0-27.954,0c-2.891,3.29-5.212,7.863-6.9,13.592C15.012,24.885,12.379,30.8,9.591,37.063,4.876,47.657,0,58.613,0,66.695a37.305,37.305,0,0,0,74.611,0C74.611,58.613,69.735,47.658,65.019,37.063ZM37.305,97.217A30.557,30.557,0,0,1,6.783,66.695c0-6.641,4.784-17.39,9.005-26.873,2.882-6.475,5.6-12.59,7.152-17.854,1.4-4.775,3.249-8.486,5.484-11.029a11.568,11.568,0,0,1,17.763,0c2.235,2.543,4.08,6.254,5.484,11.029,1.548,5.263,4.27,11.379,7.152,17.854,4.221,9.483,9,20.232,9,26.873A30.557,30.557,0,0,1,37.305,97.217Z" transform="translate(15 5)" /></g></svg>